<svg id="Capa_1" enable-background="new 0 0 512 512" height="512" viewBox="0 0 512 512" width="512" xmlns="http://www.w3.org/2000/svg"><g id="_x3C_Group_x3E__85_"><path d="m476.081 295.558v113.602l-10.526 10.526h-418.948v-63.6-199.853-63.92l10.526-10.526h408.421c5.814 0 10.526 4.713 10.526 10.526v72.065 131.18z" fill="#f5fcff"/><path d="m67.659 409.16c-5.814 0-10.526-4.713-10.526-10.526v-63.599-199.854-53.394h-10.526c-5.814 0-10.526 4.713-10.526 10.526v63.92 199.854 63.599c0 5.813 4.713 10.526 10.526 10.526h418.947c5.814 0 10.526-4.713 10.526-10.526v-10.526z" fill="#e6f7fe"/><g><g><g><path d="m193.705 320.499c-3.031 0-5.884-1.85-7.018-4.854l-37.824-100.193-38.18 100.215c-1.475 3.871-5.81 5.814-9.679 4.339-3.871-1.475-5.814-5.809-4.339-9.679l42.818-112.389c.022-.057.044-.113.067-.17 1.556-3.802 5.215-6.262 9.323-6.266h.011c4.104 0 7.764 2.45 9.326 6.246.028.068.055.137.081.206l42.429 112.394c1.463 3.875-.493 8.202-4.368 9.665-.871.33-1.767.486-2.647.486z" fill="#a4ace3"/></g><g><path d="m180.566 292.506h-63.537c-4.142 0-7.5-3.357-7.5-7.5s3.358-7.5 7.5-7.5h63.537c4.142 0 7.5 3.357 7.5 7.5s-3.358 7.5-7.5 7.5z" fill="#a4ace3"/></g></g><g><g><path d="m409.94 320.499c-3.03 0-5.884-1.85-7.018-4.854l-37.823-100.193-38.18 100.215c-1.475 3.871-5.809 5.813-9.679 4.339-3.871-1.475-5.814-5.809-4.339-9.679l42.818-112.389c.021-.057.044-.113.067-.17 1.556-3.802 5.214-6.261 9.322-6.266h.012c4.103 0 7.762 2.45 9.324 6.245.028.068.056.138.082.207l42.428 112.394c1.463 3.875-.492 8.202-4.368 9.665-.871.33-1.767.486-2.646.486z" fill="#a4ace3"/></g><g><path d="m396.801 292.506h-63.537c-4.143 0-7.5-3.357-7.5-7.5s3.357-7.5 7.5-7.5h63.537c4.143 0 7.5 3.357 7.5 7.5s-3.358 7.5-7.5 7.5z" fill="#a4ace3"/></g></g><g><g><path d="m263.45 320.497c-17.371 0-34.303-7.237-45.293-19.361-2.782-3.068-2.549-7.812.52-10.594 3.069-2.783 7.812-2.549 10.594.52 8.194 9.038 20.972 14.435 34.18 14.435 15.109 0 24.965-9.545 26.569-18.527 1.695-9.5-5.324-17.896-19.261-23.035-17.478-6.444-32.982-13.344-33.634-13.635-.361-.161-.709-.351-1.041-.566-9.798-6.385-14.844-17.594-13.171-29.252 1.808-12.6 11.131-22.896 24.33-26.871 27.697-8.337 50.616 10.559 51.578 11.367 3.171 2.665 3.581 7.396.917 10.568-2.659 3.163-7.376 3.58-10.548.933-.287-.235-17.875-14.455-37.622-8.504-7.661 2.307-12.822 7.779-13.807 14.638-.821 5.719 1.439 11.004 6.06 14.247 2.993 1.318 16.993 7.421 32.128 13.001 24.857 9.166 31.195 26.541 28.838 39.745-3.145 17.611-20.916 30.891-41.337 30.891z" fill="#a4ace3"/></g></g><g><g><path d="m439.949 320.497c-4.143 0-7.5-3.357-7.5-7.5v-49.514c0-4.143 3.357-7.5 7.5-7.5s7.5 3.357 7.5 7.5v49.514c0 4.143-3.357 7.5-7.5 7.5z" fill="#a4ace3"/></g><g><path d="m439.949 270.984c-1.985 0-3.89-.787-5.296-2.189-1.417-1.413-2.211-3.334-2.204-5.336 0-.002.079-23.338.079-32.286 0-5.268-.041-19.498-.064-27.136-.01-3.347 1.286-6.492 3.647-8.86 2.362-2.369 5.507-3.674 8.854-3.674h26.721c19.872 0 37.022 14.552 39.891 33.848 0 0 0 0 .001.001 1.672 11.249-1.661 22.679-9.146 31.359-7.743 8.98-18.945 14.13-30.732 14.13-8.69 0-31.475.141-31.704.143-.016 0-.031 0-.047 0zm7.522-64.481c.023 7.934.057 19.927.057 24.669 0 5.675-.031 17.128-.055 24.767 7.518-.042 18.697-.099 24.226-.099 7.42 0 14.481-3.253 19.372-8.926 4.7-5.45 6.713-12.325 5.668-19.358-1.785-12.002-12.557-21.054-25.055-21.054h-24.213z" fill="#a4ace3"/></g></g><g><g><path d="m19.569 328.235c-.506 0-1.02-.052-1.535-.159-4.055-.843-6.659-4.815-5.816-8.869l26.92-129.465c.843-4.057 4.815-6.661 8.87-5.816 4.055.843 6.659 4.815 5.816 8.869l-26.92 129.465c-.736 3.54-3.856 5.975-7.335 5.975z" fill="#a4ace3"/></g><g><path d="m53.903 328.235c-.506 0-1.02-.052-1.535-.159-4.055-.843-6.659-4.815-5.816-8.869l26.919-129.465c.843-4.057 4.816-6.661 8.87-5.816 4.055.843 6.659 4.815 5.816 8.869l-26.919 129.464c-.736 3.541-3.856 5.976-7.335 5.976z" fill="#a4ace3"/></g><g><path d="m93.109 240.868h-76.393c-4.142 0-7.5-3.357-7.5-7.5s3.358-7.5 7.5-7.5h76.393c4.142 0 7.5 3.357 7.5 7.5 0 4.142-3.358 7.5-7.5 7.5z" fill="#a4ace3"/></g><g><path d="m83.894 285.417h-76.394c-4.142 0-7.5-3.357-7.5-7.5s3.358-7.5 7.5-7.5h76.393c4.142 0 7.5 3.357 7.5 7.5.001 4.143-3.357 7.5-7.499 7.5z" fill="#a4ace3"/></g></g></g><g><path d="m406.083 380.498h-300.005c-4.142 0-7.5-3.357-7.5-7.5s3.358-7.5 7.5-7.5h300.005c4.143 0 7.5 3.357 7.5 7.5s-3.357 7.5-7.5 7.5z" fill="#a4ace3"/></g><g><path d="m406.083 146.502h-300.005c-4.142 0-7.5-3.357-7.5-7.5s3.358-7.5 7.5-7.5h300.005c4.143 0 7.5 3.357 7.5 7.5s-3.357 7.5-7.5 7.5z" fill="#a4ace3"/></g></g></svg>